<svg data-name="Layer 1" xmlns="http://www.w3.org/2000/svg" viewBox="0 0 40 40"><path d="M20 0L0 20l20 20 20-20z" fill="#231f20"/><path d="M12 17.79h2v.08a.37.37 0 0 0-.28.1.31.31 0 0 0-.12.26v3.15a3.8 3.8 0 0 0 .06.74v.1h-.06l-3.32-2.93v2.39a.42.42 0 0 0 .12.27.4.4 0 0 0 .28.1h.12v.07h-2v-.07h.12a.4.4 0 0 0 .28-.1.37.37 0 0 0 .11-.27v-3.17a4.67 4.67 0 0 0-.05-.72v-.1h.07l3.3 2.91v-2.37a.36.36 0 0 0-.11-.26.39.39 0 0 0-.28-.1H12zm10.65.08h-.06a.58.58 0 0 0-.3.09.66.66 0 0 0-.25.27l-1.47 3.11a3.76 3.76 0 0 0-.33.88h-.07l-1.92-4a.59.59 0 0 0-.55-.38v-.08h2.12v.07h-.06a.26.26 0 0 0-.21.09.29.29 0 0 0-.06.16.88.88 0 0 0 0 .16l1 2.35 1-2.35a.5.5 0 0 0 0-.16.25.25 0 0 0-.07-.16.23.23 0 0 0-.2-.09h-.06v-.07h1.44zm8.48 0h-.1a.64.64 0 0 0-.35.1.76.76 0 0 0-.28.25l-1.29 2v1.47a.39.39 0 0 0 .13.27.4.4 0 0 0 .29.11h.07v.07h-2v-.07h.09a.41.41 0 0 0 .28-.11.34.34 0 0 0 .12-.27V20.2l-1.27-2a.84.84 0 0 0-.27-.26.81.81 0 0 0-.37-.09h-.09v-.08h2.2v.08h-.08A.23.23 0 0 0 28 18a.29.29 0 0 0-.06.15.2.2 0 0 0 0 .11l1 1.66 1-1.66a.2.2 0 0 0 0-.11.29.29 0 0 0-.06-.15.22.22 0 0 0-.2-.09h-.07v-.08h1.55z" fill="#fefefe"/></svg>