<svg xmlns="http://www.w3.org/2000/svg" viewBox="0 0 32 32"><path d="M16 3.29c4.14 0 4.63 0 6.26.09a8.35 8.35 0 0 1 2.88.54 4.7 4.7 0 0 1 1.78 1.16 4.7 4.7 0 0 1 1.16 1.78 8.35 8.35 0 0 1 .54 2.88c.07 1.63.09 2.12.09 6.26s0 4.63-.09 6.26a8.35 8.35 0 0 1-.54 2.88 5.15 5.15 0 0 1-2.94 2.94 8.35 8.35 0 0 1-2.88.54c-1.63.07-2.12.09-6.26.09s-4.63 0-6.26-.09a8.35 8.35 0 0 1-2.88-.54 4.7 4.7 0 0 1-1.78-1.16 4.7 4.7 0 0 1-1.16-1.78 8.35 8.35 0 0 1-.54-2.88c-.07-1.63-.09-2.12-.09-6.26s0-4.63.09-6.26a8.35 8.35 0 0 1 .54-2.88 4.7 4.7 0 0 1 1.16-1.78 4.7 4.7 0 0 1 1.78-1.16 8.35 8.35 0 0 1 2.88-.54c1.63-.07 2.12-.09 6.26-.09M16 .5c-4.21 0-4.74 0-6.39.09a11.53 11.53 0 0 0-3.76.72 7.93 7.93 0 0 0-4.54 4.54 11.53 11.53 0 0 0-.72 3.76C.52 11.26.5 11.79.5 16s0 4.74.09 6.39a11.53 11.53 0 0 0 .72 3.76 7.93 7.93 0 0 0 4.54 4.54 11.53 11.53 0 0 0 3.76.72c1.65.07 2.18.09 6.39.09s4.74 0 6.39-.09a11.53 11.53 0 0 0 3.76-.72 7.93 7.93 0 0 0 4.54-4.54 11.53 11.53 0 0 0 .72-3.76c.07-1.65.09-2.18.09-6.39s0-4.74-.09-6.39a11.53 11.53 0 0 0-.72-3.76 7.93 7.93 0 0 0-4.54-4.54 11.53 11.53 0 0 0-3.76-.72C20.74.52 20.21.5 16 .5z"/><path d="M16 8a8 8 0 1 0 8 8 8 8 0 0 0-8-8zm0 13.13A5.17 5.17 0 1 1 21.17 16 5.18 5.18 0 0 1 16 21.17z"/><circle cx="24.27" cy="7.73" r="1.86"/></svg>