<svg xmlns="http://www.w3.org/2000/svg" viewBox="0 0 16 16"><path d="M0 8a8 8 0 0 0 4.79 7.33 7.31 7.31 0 0 1 .14-1.84L6 9.13a3 3 0 0 1-.3-1.27c0-1.18.69-2.07 1.55-2.07A1.08 1.08 0 0 1 8.33 7a17.31 17.31 0 0 1-.71 2.85 1.23 1.23 0 0 0 1.26 1.53c1.52 0 2.54-1.94 2.54-4.25a3 3 0 0 0-3.33-3.07 3.79 3.79 0 0 0-3.94 3.83 2.33 2.33 0 0 0 .53 1.57.36.36 0 0 1 .11.44c0 .15-.12.5-.16.64a.27.27 0 0 1-.4.2 3.07 3.07 0 0 1-1.64-3c0-2.27 1.92-5 5.72-5a4.78 4.78 0 0 1 5.06 4.58c0 3.14-1.74 5.49-4.31 5.49a2.3 2.3 0 0 1-2-1S6.64 13.6 6.54 14a6.9 6.9 0 0 1-.8 1.71h.16l.57.14.38.06.39.05h1.57c.19 0 .37-.06.55-.09h.25l.37-.1.4-.1h.11a8.1 8.1 0 0 0 2-1 8.22 8.22 0 0 0 2.41-2.57c0-.09.11-.18.15-.27s.09-.18.13-.26.15-.31.22-.47 0-.12.07-.19.14-.37.2-.57v-.12a8.43 8.43 0 0 0 .2-.9v-.25A8.76 8.76 0 0 0 16 8 8 8 0 0 0 0 8z"/></svg>