<svg xmlns="http://www.w3.org/2000/svg" viewBox="0 0 16 16"><path d="M16 3.796a6.57 6.57 0 0 1-1.885.517 3.296 3.296 0 0 0 1.444-1.816 6.583 6.583 0 0 1-2.085.798A3.282 3.282 0 0 0 7.795 5.54c0 .257.03.507.084.748a9.312 9.312 0 0 1-6.764-3.43A3.28 3.28 0 0 0 2.13 7.24a3.258 3.258 0 0 1-1.488-.41v.04a3.284 3.284 0 0 0 2.633 3.22 3.283 3.283 0 0 1-1.482.056 3.286 3.286 0 0 0 3.066 2.28A6.585 6.585 0 0 1 0 13.786a9.302 9.302 0 0 0 5.032 1.473c6.039 0 9.34-5 9.34-9.34 0-.14-.004-.282-.009-.424A6.659 6.659 0 0 0 16 3.795"/></svg>